:SAMPLES-PER-SECOND 30
:FULLY-SPECIFIED
:DEGREES
440
root  -68.4179 34.3879 21.4265 -172.85 53.8594 -173.125
RightUpLeg  -9.99208 -16.0755 -2.5704
RightLeg  14.2595 -3.78476 -0.705475
RightFoot  6.61877 0.0468906 -0.259834
RightToes  -33.289 -0.167213 -0.274163
Spine  -0.208704 1.90696 -3.7845
Spine1  -0.675752 3.92995 -6.93218
HEad  -64.4665 -22.243 7.04296
LeftShoulder1  -1.94126e-019 -3.10601e-018 -2.51263e-017
LeftArm  -11.956 14.7783 -77.8681
LeftForeArm  30.1117 -37.7848 -6.80476
LeftHand  -0.458288 -1.71662 7.66432
RightShoulder  -4.96962e-017 0 -2.36833e-017
RightArm  -6.79557 -17.3627 79.8664
RightForeArm  51.6843 39.7322 6.09546
RightHand  -0.398944 0.524032 -7.91761
LeftUpLeg  -13.6193 2.97577 8.98187
LeftLeg  28.2152 9.17315 4.15753
LeftFoot  -5.04843 -0.03999 -0.745571
LeftToes  -35.5381 2.32378e-006 -5.43956e-008
441
root  -68.5871 34.4013 21.4302 -172.634 54.7181 -173.177
RightUpLeg  -10.43 -15.8653 -2.64975
RightLeg  13.8796 -3.37597 -0.60617
RightFoot  6.62124 0.0450791 -0.213336
RightToes  -34.2583 -0.174316 -0.280446
Spine  -0.215751 1.92984 -3.71658
Spine1  -0.688985 3.9771 -6.79748
HEad  -63.8708 -21.4214 6.74448
LeftShoulder1  -1.94126e-019 -3.10601e-018 -2.51263e-017
LeftArm  -11.6804 15.1475 -77.3769
LeftForeArm  30.6171 -37.3348 -6.64929
LeftHand  -0.455813 -2.17955 7.19105
RightShoulder  -4.96962e-017 0 -2.36833e-017
RightArm  -6.22588 -17.4879 79.9612
RightForeArm  51.492 39.65 6.08205
RightHand  -0.384028 0.212251 -8.01939
LeftUpLeg  -13.8611 3.85638 8.69172
LeftLeg  28.3315 9.28432 4.22988
LeftFoot  -5.7322 -0.0521711 -0.88051
LeftToes  -35.2152 2.32378e-006 -5.43956e-008
442
root  -68.7405 34.4045 21.4284 -172.476 55.4994 -173.248
RightUpLeg  -10.9038 -15.6699 -2.74833
RightLeg  13.735 -2.97664 -0.526744
RightFoot  6.51446 0.0427781 -0.163011
RightToes  -34.8661 -0.178825 -0.284324
Spine  -0.213237 1.88337 -3.59672
Spine1  -0.673003 3.87945 -6.55153
HEad  -63.0909 -20.1552 6.07745
LeftShoulder1  -1.94126e-019 -3.10601e-018 -2.51263e-017
LeftArm  -12.1818 15.6404 -76.8261
LeftForeArm  30.4394 -35.7777 -6.23722
LeftHand  -0.458874 -2.03972 7.36387
RightShoulder  -4.96962e-017 0 -2.36833e-017
RightArm  -5.86643 -17.6714 79.9998
RightForeArm  51.4316 39.4131 6.02077
RightHand  -0.37923 0.306916 -7.79691
LeftUpLeg  -14.1227 4.31929 8.40091
LeftLeg  28.5228 9.56344 4.39382
LeftFoot  -6.34491 -0.0659151 -1.02766
LeftToes  -34.406 2.32378e-006 -5.43956e-008
443
root  -68.8704 34.3978 21.4406 -172.379 56.1414 -173.256
RightUpLeg  -11.233 -15.3898 -2.80217
RightLeg  13.5799 -2.72716 -0.474974
RightFoot  6.68737 0.0424402 -0.144246
RightToes  -35.561 -0.184028 -0.287907
Spine  -0.162477 1.79846 -3.48091
Spine1  -0.561807 3.70841 -6.31486
HEad  -62.0114 -18.5915 5.29256
LeftShoulder1  -1.94126e-019 -3.10601e-018 -2.51263e-017
LeftArm  -12.9054 15.9906 -76.0093
LeftForeArm  29.6134 -33.1311 -5.60514
LeftHand  -0.468362 -1.80887 7.73561
RightShoulder  -4.96962e-017 0 -2.36833e-017
RightArm  -5.36425 -17.9938 79.9468
RightForeArm  51.0781 39.1207 5.95895
RightHand  -0.375765 0.570744 -7.40776
LeftUpLeg  -14.3425 4.67042 8.20568
LeftLeg  28.7355 9.71213 4.50462
LeftFoot  -6.43958 -0.0691204 -1.06711
LeftToes  -34.4479 2.32378e-006 -5.43956e-008
444
root  -68.9887 34.3813 21.4644 -172.297 56.63 -173.315
RightUpLeg  -11.6514 -15.4878 -2.83851
RightLeg  13.5947 -2.28787 -0.399085
RightFoot  6.74956 0.0398921 -0.097738
RightToes  -36.0716 -0.187887 -0.291873
Spine  -0.102518 1.6864 -3.34021
Spine1  -0.426595 3.47734 -6.02103
HEad  -60.3908 -16.9044 4.09607
LeftShoulder1  -1.94126e-019 -3.10601e-018 -2.51263e-017
LeftArm  -13.8244 16.3177 -75.2109
LeftForeArm  28.3902 -29.6675 -4.84216
LeftHand  -0.479763 -1.40255 8.36122
RightShoulder  -4.96962e-017 0 -2.36833e-017
RightArm  -5.11774 -18.3987 79.8961
RightForeArm  51.0141 38.6898 5.84685
RightHand  -0.370471 0.657166 -7.20777
LeftUpLeg  -14.6779 4.90791 8.03351
LeftLeg  29.0309 9.85142 4.62967
LeftFoot  -6.50454 -0.0717631 -1.10132
LeftToes  -33.4927 2.32378e-006 -5.43956e-008
